<svg width="791" height="146" viewBox="0 0 791 146" fill="none" xmlns="http://www.w3.org/2000/svg">
<path d="M0.128418 36.7747L36.3533 0.549805H108.803L145.028 36.7747V72.9996H108.803V36.7747H36.3533V72.9996H0.128419L0.128418 36.7747Z" fill="white"/>
<path d="M36.3533 109.224V72.9996H108.803V109.224H36.3533Z" fill="white"/>
<path d="M36.3533 109.224H0.128419V145.449H36.3533V109.224Z" fill="white"/>
<path d="M108.803 109.224V145.449H145.028V109.224H108.803Z" fill="white"/>
<path d="M744.056 134.387C737.443 134.387 731.229 133.189 725.414 130.795C719.714 128.401 714.754 125.151 710.535 121.047C706.317 116.828 703.01 111.926 700.616 106.339C698.222 100.638 697.025 94.5956 697.025 88.2108C697.025 81.826 698.222 75.8403 700.616 70.2536C703.01 64.5529 706.317 59.6503 710.535 55.5458C714.754 51.3273 719.714 48.0209 725.414 45.6266C731.229 43.2323 737.443 42.0351 744.056 42.0351C750.896 42.0351 757.11 43.2323 762.697 45.6266C768.398 48.0209 773.3 51.3273 777.405 55.5458C781.509 59.7643 784.645 64.6669 786.811 70.2536C789.091 75.8403 790.231 81.826 790.231 88.2108V93.3415H721.823C722.279 96.0778 723.134 98.7001 724.388 101.208C725.756 103.717 727.409 105.94 729.348 107.878C731.4 109.702 733.68 111.185 736.189 112.325C738.697 113.351 741.319 113.864 744.056 113.864C747.932 113.864 751.067 113.351 753.462 112.325C755.97 111.185 758.022 109.988 759.618 108.733C761.329 107.251 762.697 105.541 763.723 103.603H789.376C787.552 109.303 784.702 114.434 780.825 118.995C779.115 120.933 777.12 122.814 774.839 124.638C772.559 126.463 769.937 128.116 766.972 129.598C764.008 131.08 760.588 132.22 756.711 133.018C752.949 133.93 748.73 134.387 744.056 134.387ZM764.578 78.8047C764.122 76.6384 763.324 74.5862 762.184 72.6479C761.044 70.7097 759.561 68.9995 757.737 67.5173C756.027 66.0351 753.975 64.838 751.581 63.9258C749.3 63.0137 746.792 62.5577 744.056 62.5577C738.469 62.5577 733.794 64.2109 730.032 67.5173C726.383 70.7097 723.932 74.4721 722.678 78.8047H764.578Z" fill="white"/>
<path d="M632.892 134.387C627.305 134.387 622.06 133.303 617.158 131.137C612.369 128.971 608.151 125.892 604.502 121.902C600.854 117.912 597.947 113.066 595.78 107.365C593.728 101.665 592.702 95.2797 592.702 88.2108C592.702 81.142 593.728 74.7572 595.78 69.0565C597.947 63.3558 600.854 58.5102 604.502 54.5197C608.151 50.5292 612.369 47.4508 617.158 45.2845C622.06 43.1183 627.305 42.0351 632.892 42.0351C637.68 42.0351 641.728 42.7762 645.034 44.2584C648.455 45.6266 651.305 47.1658 653.585 48.876C656.208 50.9282 658.431 53.2085 660.255 55.7168H661.11V12.1064H685.053V131.821H661.11V120.705H660.255C658.431 123.213 656.208 125.493 653.585 127.546C651.305 129.256 648.455 130.795 645.034 132.163C641.728 133.645 637.68 134.387 632.892 134.387ZM638.878 113.864C645.376 113.864 650.678 111.641 654.783 107.194C659.001 102.748 661.11 96.4199 661.11 88.2108C661.11 80.0018 659.001 73.674 654.783 69.2275C650.678 64.7809 645.376 62.5577 638.878 62.5577C632.835 62.5577 627.761 64.7809 623.657 69.2275C619.552 73.674 617.5 80.0018 617.5 88.2108C617.5 96.4199 619.552 102.748 623.657 107.194C627.761 111.641 632.835 113.864 638.878 113.864Z" fill="white"/>
<path d="M527.714 134.387C522.127 134.387 516.883 133.303 511.98 131.137C507.191 128.971 502.973 125.892 499.324 121.902C495.676 117.912 492.769 113.066 490.602 107.365C488.55 101.665 487.524 95.2797 487.524 88.2108C487.524 81.142 488.55 74.7572 490.602 69.0565C492.769 63.3558 495.676 58.5102 499.324 54.5197C502.973 50.5292 507.191 47.4508 511.98 45.2845C516.883 43.1183 522.127 42.0351 527.714 42.0351C532.502 42.0351 536.55 42.7762 539.856 44.2584C543.277 45.6266 546.127 47.1658 548.407 48.876C551.03 50.9282 553.253 53.2085 555.077 55.7168H555.932V44.6005H579.875V131.821H555.932V120.705H555.077C553.253 123.213 551.03 125.493 548.407 127.546C546.127 129.256 543.277 130.795 539.856 132.163C536.55 133.645 532.502 134.387 527.714 134.387ZM533.7 113.864C540.198 113.864 545.5 111.641 549.605 107.194C553.823 102.748 555.932 96.4199 555.932 88.2108C555.932 80.0018 553.823 73.674 549.605 69.2275C545.5 64.7809 540.198 62.5577 533.7 62.5577C527.657 62.5577 522.583 64.7809 518.479 69.2275C514.374 73.674 512.322 80.0018 512.322 88.2108C512.322 96.4199 514.374 102.748 518.479 107.194C522.583 111.641 527.657 113.864 533.7 113.864Z" fill="white"/>
<path d="M403.824 12.1064H427.767V77.0945H438.028L461.116 44.6005H487.624L459.406 84.7904L490.189 131.821H462.826L440.593 97.617H427.767V131.821H403.824V12.1064Z" fill="white"/>
<path d="M336.224 44.6005H360.167V57.427H361.022C362.048 54.6907 363.587 52.2964 365.639 50.2442C367.35 48.4199 369.63 46.7667 372.48 45.2845C375.331 43.6883 378.922 42.8902 383.254 42.8902H393.516V65.9781H380.689C374.19 65.9781 369.117 67.7453 365.468 71.2798C361.934 74.8142 360.167 79.6028 360.167 85.6455V131.821H336.224V44.6005Z" fill="white"/>
<path d="M242.109 12.1064H295.98L327.619 131.821H301.111L294.27 105.313H243.819L236.978 131.821H210.47L242.109 12.1064ZM288.284 81.37L276.313 36.0494H261.776L249.805 81.37H288.284Z" fill="white"/>
</svg>
